<svg width="499" height="626" viewBox="0 0 499 626" fill="none" xmlns="http://www.w3.org/2000/svg">
  <path
    d="M437.128 535.444C437.128 446.349 364.902 374.123 275.807 374.123C186.712 374.123 114.486 446.349 114.486 535.444C114.486 624.539 190.158 617.062 279.253 617.062C368.348 617.062 437.128 624.539 437.128 535.444Z"
    fill="#4FBF9F" stroke="#183651" stroke-width="16" stroke-linejoin="round" />
  <path
    d="M221.122 495.67C231.693 495.67 240.262 487.101 240.262 476.53C240.262 465.959 231.693 457.39 221.122 457.39C210.551 457.39 201.982 465.959 201.982 476.53C201.982 487.101 210.551 495.67 221.122 495.67Z"
    fill="#183651" />
  <path
    d="M341.429 495.67C352 495.67 360.569 487.101 360.569 476.53C360.569 465.959 352 457.39 341.429 457.39C330.859 457.39 322.29 465.959 322.29 476.53C322.29 487.101 330.859 495.67 341.429 495.67Z"
    fill="#183651" />
  <path
    d="M152.766 481.998C155.786 481.998 158.234 479.55 158.234 476.53C158.234 473.51 155.786 471.061 152.766 471.061C149.745 471.061 147.297 473.51 147.297 476.53C147.297 479.55 149.745 481.998 152.766 481.998Z"
    fill="white" />
  <path fill-rule="evenodd" clip-rule="evenodd"
    d="M223.113 414.295C224.439 413.615 224.702 412.163 223.667 411.013L220.042 406.988C219.022 405.855 217.087 405.496 215.772 406.172C215.772 406.172 205.243 411.353 196.305 417.653C187.366 423.953 187.404 424.144 183.924 427.278C174.245 435.992 158.806 457.655 158.806 457.655C157.939 458.853 158.048 460.725 159.084 461.875L162.708 465.901C163.728 467.033 165.213 466.938 166.052 465.667C166.052 465.667 172.45 455.604 180.087 446.748C187.724 437.892 184.916 441.129 190.398 435.262C198.476 426.617 223.113 414.295 223.113 414.295Z"
    fill="white" />
  <path fill-rule="evenodd" clip-rule="evenodd"
    d="M277.174 586.734C303.601 586.734 325.024 565.311 325.024 538.885C325.024 512.458 305.033 527.009 278.606 527.009C252.18 527.009 229.325 512.458 229.325 538.885C229.325 565.311 250.748 586.734 277.174 586.734Z"
    fill="#183651" />
  <path
    d="M250.286 312.938L261.314 301.123L275.492 316.089L290.458 301.123L301.486 312.938L275.492 338.144L250.286 312.938Z"
    fill="#183651" />
  <path
    d="M6 196.259C6 228.554 31.994 254.548 64.289 254.548L224.698 254.548C248.328 254.548 267.233 273.453 267.233 297.083V317.623H283.775V297.082C283.775 264.787 257.781 238.793 225.486 238.793H65.077C41.447 238.793 22.542 219.888 22.542 196.258C22.542 172.628 41.446 153.723 65.077 153.723H200.56V137.97H65.077C32.782 137.97 6 163.964 6 196.259Z"
    fill="#183651" />
  <path d="M304.535 114.338H200.56V178.141H304.535V114.338Z" fill="#E0E4E8" stroke="#183651" stroke-width="16"
    stroke-linejoin="round" />
  <path
    d="M351.797 170.265L326.591 144.271L351.797 118.277L363.612 129.305L348.646 144.271L363.612 159.237L351.797 170.265Z"
    fill="#183651" />
  <path
    d="M440.018 152.148H337.618V136.394H440.018C463.649 136.394 482.553 117.489 482.553 93.859V89.921C482.553 66.29 463.648 47.386 440.018 47.386H304.535V31.631H440.018C472.313 31.631 498.307 57.625 498.307 89.92V93.858C498.308 126.154 472.314 152.148 440.018 152.148Z"
    fill="#183651" />
  <path d="M304.535 8H200.56V71.803H304.535V8Z" fill="#4FBF9F" stroke="#183651" stroke-width="16"
    stroke-linejoin="round" />
  <path d="M357.311 195.471H341.557V211.225H357.311V195.471Z" fill="#183651" />
  <path d="M405.36 195.471H389.606V211.225H405.36V195.471Z" fill="#183651" />
  <path d="M452.622 195.471H436.868V211.225H452.622V195.471Z" fill="#183651" />
  <path d="M68.228 293.145H52.474V308.899H68.228V293.145Z" fill="#183651" />
  <path d="M115.489 293.145H99.735V308.899H115.489V293.145Z" fill="#183651" />
  <path d="M163.538 293.145H147.784V308.899H163.538V293.145Z" fill="#183651" />
  <path d="M146.997 65.501L135.969 54.474L150.148 39.508L135.969 24.541L146.997 13.514L172.991 39.508L146.997 65.501Z"
    fill="#183651" />
  <path d="M161.175 31.631H112.338V47.385H161.175V31.631Z" fill="#183651" />
  <path d="M112.338 8H8.36301V71.803H112.338V8Z" fill="#F06151" stroke="#183651" stroke-width="16"
    stroke-linejoin="round" />
</svg>
